# xmcd
#
# Track frame offsets:
#	150
#	12973
#	28059
#	39044
#	50469
#	63422
#	74353
#	86060
#	96286
#	106805
#	118913
#	131020
#	144757
#	156122
#	171104
#	181912
#	191768
#	202775
#	214580
#	226265
#	240788
#	254626
#	267977
#	280842
#	293874
#
# Disc length: 4055 seconds
#
# Revision: 0
# Processed by: cddbd v1.5.2PL0 Copyright (c) Steve Scherf et al.
# Submitted via: EZCDAudioConverter 2.4.0.1
#
DISCID=5e0fd519
DTITLE=Faron Young - Wine Me Up - Best Of The Mercury Years Cd 2
DYEAR=2014
DGENRE=Country
TTITLE0=Young Faron - I've Got Precious Memories
TTITLE1=Young Faron - Your Time's Comin'
TTITLE2=Young Faron and Margie Singleton - No Thanks I Just Had One
TTITLE3=Young Faron - I Just Came To Get My Baby
TTITLE4=Young Faron - She Fights That Lovin' Feeling
TTITLE5=Young Faron - Just What I Had In Mind
TTITLE6=Young Faron - Some Kind Of Woman
TTITLE7=Young Faron - Wrong In Loving You
TTITLE8=Young Faron - Another You
TTITLE9=Young Faron - Here I Am In Dallas
TTITLE10=Young Faron - Feel Again
TTITLE11=Young Faron - I'd Just Be Fool Enough
TTITLE12=Young Faron - Worst You Ever Gave Me Was) The Best I Ever Had
TTITLE13=Young Faron - Crutches
TTITLE14=Young Faron - Loving Her And Living There And Lying In Between
TTITLE15=Young Faron - Seems Like I'm Always Leaving
TTITLE16=Young Faron - I'd Rather Love You
TTITLE17=Young Faron - Arms Of A Fool
TTITLE18=Young Faron - She's Too Good To Be True
TTITLE19=Young Faron - Old Courthouse
TTITLE20=Young Faron - Ain't It Good To Be In Love Again
TTITLE21=Young Faron - Always Wanting You
TTITLE22=Young Faron - This Time The Hurtin's On Me
TTITLE23=Young Faron - Save The Last Dance For Me
TTITLE24=Young Faron - Drinking Champagne
EXTD=
EXTT0=
EXTT1=
EXTT2=
EXTT3=
EXTT4=
EXTT5=
EXTT6=
EXTT7=
EXTT8=
EXTT9=
EXTT10=
EXTT11=
EXTT12=
EXTT13=
EXTT14=
EXTT15=
EXTT16=
EXTT17=
EXTT18=
EXTT19=
EXTT20=
EXTT21=
EXTT22=
EXTT23=
EXTT24=
PLAYORDER=
